<?xml version="1.0" encoding="UTF-8" standalone="no"?>
<!-- Created with Inkscape (http://www.inkscape.org/) -->

<svg
   xmlns:dc="http://purl.org/dc/elements/1.1/"
   xmlns:cc="http://creativecommons.org/ns#"
   xmlns:rdf="http://www.w3.org/1999/02/22-rdf-syntax-ns#"
   xmlns:svg="http://www.w3.org/2000/svg"
   xmlns="http://www.w3.org/2000/svg"
   xmlns:sodipodi="http://sodipodi.sourceforge.net/DTD/sodipodi-0.dtd"
   xmlns:inkscape="http://www.inkscape.org/namespaces/inkscape"
   width="733.68958"
   height="49.999989"
   id="svg3523"
   version="1.1"
   inkscape:version="0.48.0 r9654"
   sodipodi:docname="New document 3">
  <defs
     id="defs3525" />
  <sodipodi:namedview
     id="base"
     pagecolor="#ffffff"
     bordercolor="#666666"
     borderopacity="1.0"
     inkscape:pageopacity="0.0"
     inkscape:pageshadow="2"
     inkscape:zoom="0.98994949"
     inkscape:cx="466.47392"
     inkscape:cy="-185.82785"
     inkscape:document-units="px"
     inkscape:current-layer="layer1"
     showgrid="false"
     fit-margin-top="0"
     fit-margin-left="0"
     fit-margin-right="0"
     fit-margin-bottom="0"
     inkscape:window-width="1920"
     inkscape:window-height="1028"
     inkscape:window-x="-8"
     inkscape:window-y="-8"
     inkscape:window-maximized="1" />
  <metadata
     id="metadata3528">
    <rdf:RDF>
      <cc:Work
         rdf:about="">
        <dc:format>image/svg+xml</dc:format>
        <dc:type
           rdf:resource="http://purl.org/dc/dcmitype/StillImage" />
        <dc:title></dc:title>
      </cc:Work>
    </rdf:RDF>
  </metadata>
  <g
     inkscape:label="Layer 1"
     inkscape:groupmode="layer"
     id="layer1"
     transform="translate(-3.4006218,-124.10907)">
    <path
       inkscape:connector-curvature="0"
       id="path388"
       style="fill:#231f20;fill-opacity:1;fill-rule:nonzero;stroke:none"
       d="m 15.114026,124.10949 c -0.31317,0 -0.60085,0.18663 -0.72285,0.48524 -5.9776096,14.18479 -9.4953596,24.15449 -9.5281496,24.2528 0,0 -0.97045,2.95149 -0.97045,2.95149 -0.0893,0.25217 -1.96099,6.2198 2.23955,12.0108 4.9616196,6.83156 15.9846396,10.29924 32.7467496,10.29924 0,0 31.95835,0 31.95835,0 0.25126,0 0.47705,-0.11649 0.62636,-0.3068 0,0 2.02105,-2.61101 2.02105,-2.61101 0.1857,-0.23852 0.2185,-0.56262 0.0893,-0.833 -0.13648,-0.2722 -0.41332,-0.44154 -0.71556,-0.44154 0,0 -26.32121,0 -26.32121,0 -0.15289,0 -16.3142,-0.34139 -21.6764,-7.8849 -1.91366,-2.68746 -2.21954,-6.04317 -0.92861,-9.96969 0,0 0.31135,-0.95864 0.31135,-0.95864 0,0 0.57902,-1.72791 0.57902,-1.72791 2.98973,-8.53583 9.4262,-24.0161 9.49356,-24.16724 0.0947,-0.24853 0.0729,-0.52438 -0.0729,-0.74835 -0.14558,-0.22121 -0.40058,-0.35049 -0.66097,-0.35049 0,0 -18.46817,0 -18.46817,0 z" />
    <path
       inkscape:connector-curvature="0"
       id="path390"
       style="fill:#231f20;fill-opacity:1;fill-rule:nonzero;stroke:none"
       d="m 119.1735,124.10949 c 0,0 -21.219384,0 -21.219384,0 -0.22576,0 -0.44061,0.0973 -0.59721,0.26674 0,0 -2.30329,2.61192 -2.30329,2.61192 -0.20393,0.2358 -0.25128,0.56717 -0.1238,0.8503 0.1238,0.28404 0.40605,0.46247 0.72468,0.46247 0,0 3.32292,0 3.32292,0 0.44609,0 0.79933,0.15661 0.99416,0.43791 0.147524,0.21667 0.151214,0.42971 0.111124,0.52073 -1.995594,5.17557 -4.850574,12.77552 -7.101064,19.60344 -2.72752,8.24634 -5.35674,17.76265 -6.50199,22.00415 -0.37327,1.3929 0.60449,3.24191 2.58368,3.24191 0,0 20.920774,0 20.920774,0 0.24398,0 0.46978,-0.10739 0.61543,-0.29225 0,0 2.12121,-2.61191 2.12121,-2.61191 0.19482,-0.23852 0.2276,-0.56352 0.10203,-0.84119 -0.1329,-0.2722 -0.41149,-0.447 -0.71374,-0.447 0,0 -3.66524,0 -3.66524,0 -0.63362,0 -1.09611,-0.12917 -1.26726,-0.35233 -0.16388,-0.22212 -0.0803,-0.59174 -0.0492,-0.73923 1.31825,-4.8269 3.39574,-12.13004 5.82104,-19.47052 2.9278,-8.86174 6.3709,-17.78358 7.97865,-21.86667 0.56263,-1.42385 0.0874,-3.37847 -1.75342,-3.37847" />
    <path
       inkscape:connector-curvature="0"
       id="path392"
       style="fill:#231f20;fill-opacity:1;fill-rule:nonzero;stroke:none"
       d="m 145.2562,124.10949 c -1.71881,0 -3.05163,1.3319 -3.58329,2.68839 -1.64599,4.21601 -5.32579,13.7824 -8.06061,22.06512 -3.61424,10.93835 -7.06645,24.12082 -7.09921,24.25829 -0.0619,0.2294 -0.0104,0.4816 0.14215,0.68097 0.14934,0.19026 0.37689,0.3068 0.62999,0.3068 0,0 18.46454,0 18.46454,0 0.35868,0 0.67187,-0.24763 0.76654,-0.59813 0.0291,-0.11932 3.11353,-12.18376 7.06647,-24.1563 2.42346,-7.34777 5.18012,-14.67276 7.06281,-19.52424 0.1693,-0.43517 1.21991,-1.52947 2.69476,-1.52947 0,0 10.81179,0 10.81179,0 0.17844,0 0.3514,-0.061 0.4989,-0.17116 0,0 3.23006,-2.61373 3.23006,-2.61373 0.26039,-0.20939 0.36415,-0.56172 0.24945,-0.87853 -0.11112,-0.31501 -0.40968,-0.52802 -0.74834,-0.52802 0,0 -32.12587,0 -32.12587,0 z" />
    <path
       inkscape:connector-curvature="0"
       id="path394"
       style="fill:#231f20;fill-opacity:1;fill-rule:nonzero;stroke:none"
       d="m 205.92464,124.10949 c -0.32775,0 -0.61541,0.19755 -0.73559,0.49616 -0.0546,0.13648 -5.31122,13.31446 -8.92548,24.25735 -2.24684,6.80699 -4.40628,14.386 -5.83013,19.54338 -0.13112,0.47521 -0.92495,1.51033 -2.4435,1.51033 0,0 -12.04263,0 -12.04263,0 -0.18217,0 -0.35688,0.0628 -0.49891,0.17471 0,0 -2.20314,2.60642 -2.20314,2.60642 -0.25854,0.21305 -0.36052,0.57083 -0.25492,0.88037 0.1165,0.31863 0.41516,0.53075 0.75017,0.53075 0,0 32.5046,0 32.5046,0 1.73519,0 3.12445,-1.38652 3.4704,-2.70477 1.06151,-3.99024 3.54505,-13.04408 6.51839,-22.04965 3.95474,-11.96254 8.84353,-24.03524 8.89089,-24.15631 0.0983,-0.24399 0.071,-0.51801 -0.0746,-0.74197 -0.14934,-0.2176 -0.39329,-0.34686 -0.65913,-0.34686 0,0 -18.46637,0 -18.46637,0 z" />
    <path
       inkscape:connector-curvature="0"
       id="path396"
       style="fill:#231f20;fill-opacity:1;fill-rule:nonzero;stroke:none"
       d="m 641.78876,124.10949 c -0.32591,0 -0.619,0.19755 -0.73741,0.49616 -0.054,0.13648 -5.30574,13.31446 -8.92191,24.25735 -3.61597,10.93835 -7.06451,24.12082 -7.10105,24.25829 -0.0577,0.2294 -0.0187,0.4816 0.1417,0.68097 0.14915,0.19026 0.38054,0.3068 0.62628,0.3068 0,0 18.47196,0 18.47196,0 0.35499,0 0.67178,-0.24763 0.75921,-0.59813 0.0336,-0.11932 3.12263,-12.18376 7.06825,-24.1563 0,0 1.12895,-3.31292 1.41477,-4.14865 1.07599,0 24.55502,-0.006 24.55502,-0.006 0.18458,0 0.35872,-0.0574 0.49707,-0.16929 0,0 3.23189,-2.61009 3.23189,-2.61009 0.19129,-0.15662 0.29682,-0.38237 0.29682,-0.61725 0,-0.0919 -0.0186,-0.18123 -0.0465,-0.2613 -0.11381,-0.32227 -0.40964,-0.53164 -0.74654,-0.53164 0,0 -26.30838,0 -26.30838,0 3.09709,-8.64145 5.96671,-15.74157 6.00307,-15.81258 0.0392,-0.0967 0.0559,-0.19756 0.0559,-0.29405 0,-0.15662 -0.0485,-0.30955 -0.13976,-0.44793 -0.13813,-0.21751 -0.39356,-0.34678 -0.65926,-0.34678 0,0 -18.46096,0 -18.46096,0 z" />
    <path
       inkscape:connector-curvature="0"
       id="path398"
       style="fill:#231f20;fill-opacity:1;fill-rule:nonzero;stroke:none"
       d="m 690.78059,124.10949 c -0.32052,0 -0.6192,0.19755 -0.73573,0.49616 -0.0577,0.13648 -5.31657,13.31446 -8.92546,24.25735 -3.61242,10.93835 -7.06824,24.12082 -7.09919,24.25829 -0.0634,0.2294 0,0.4816 0.13618,0.68097 0.15289,0.19026 0.38241,0.3068 0.63002,0.3068 0,0 18.46636,0 18.46636,0 0.35332,0 0.67737,-0.24763 0.76481,-0.59813 0.0336,-0.11932 3.1135,-12.18376 7.06824,-24.1563 3.95476,-11.96254 8.84174,-24.03524 8.89265,-24.15631 0.0989,-0.24399 0.0728,-0.52165 -0.0764,-0.74197 -0.15289,-0.21758 -0.38968,-0.34686 -0.6591,-0.34686 0,0 -18.46264,0 -18.46264,0 z" />
    <path
       inkscape:connector-curvature="0"
       id="path400"
       style="fill:#231f20;fill-opacity:1;fill-rule:nonzero;stroke:none"
       d="m 239.17939,124.10949 c -0.3241,0 -0.60996,0.19755 -0.73741,0.49616 -0.0492,0.13648 -5.30393,13.31446 -8.92002,24.25735 -3.6179,10.93835 -7.06462,24.12082 -7.09921,24.25829 -0.0637,0.2294 -0.007,0.4816 0.1329,0.68097 0.15289,0.19026 0.38601,0.3068 0.63181,0.3068 0,0 53.80955,0 53.80955,0 13.55936,0 19.54609,-13.13329 19.60617,-13.26349 0.0134,-0.0246 2.38887,-4.88151 4.56653,-11.49094 1.19989,-3.62427 3.15723,-11.80231 3.24099,-12.14463 0.83209,-3.68071 0.33502,-6.685 -1.4712,-8.93911 -3.28287,-4.11496 -9.68109,-4.1614 -9.94874,-4.1614 0,0 -53.81137,0 -53.81137,0 z m 40.24656,4.19143 c 2.55636,0 4.3116,0.6382 5.22382,1.89088 1.31096,1.81442 0.47886,4.43543 0.47886,4.46367 -0.0435,0.14752 -1.4111,6.57756 -3.92561,14.213 -2.51814,7.61815 -5.13096,13.24345 -5.16191,13.3008 -2.5673,7.76382 -10.373,7.75108 -10.70073,7.74744 0,0 -21.96591,0 -21.96591,0 1.23085,-4.55925 3.45585,-12.49785 6.11419,-20.56208 2.75484,-8.32279 5.90296,-16.57548 7.66184,-21.05371 0,0 22.27545,0 22.27545,0 z" />
    <path
       inkscape:connector-curvature="0"
       id="path402"
       style="fill:#231f20;fill-opacity:1;fill-rule:nonzero;stroke:none"
       d="m 477.65448,124.10949 c -0.32424,0 -0.6192,0.19755 -0.73927,0.49616 -0.054,0.13648 -5.31675,13.31446 -8.92545,24.25735 -3.61616,10.93835 -7.0647,24.12082 -7.09752,24.25829 -0.0615,0.2294 -0.0186,0.4816 0.13797,0.68097 0.14916,0.19026 0.38614,0.3068 0.63002,0.3068 0,0 18.46282,0 18.46282,0 0.36413,0 0.68091,-0.24763 0.76462,-0.59813 0.0391,-0.11932 3.1191,-12.18376 7.07384,-24.1563 2.74396,-8.32279 5.90294,-16.57548 7.6563,-21.05371 0,0 23.06567,0 23.06567,0 1.36741,0 2.36342,0.38784 2.96061,1.14528 1.21993,1.53947 0.61547,4.18779 0.60446,4.2151 -0.0186,0.0938 -0.19652,1.4193 -0.58992,2.60099 -0.3824,1.18261 -0.96133,2.15764 -0.96506,2.16674 -2.98968,5.79646 -8.24808,5.88203 -8.4666,5.88203 0,0 -12.40307,0 -12.40307,0 -1.66779,0 -2.30693,0.75016 -2.54912,1.38379 -0.25861,0.66732 -0.15289,1.68332 0.21124,2.0156 -0.0914,-0.0783 -0.16035,-0.17208 -0.19856,-0.28677 0,0 9.51723,23.06475 9.51723,23.06475 0.12678,0.23943 2.10855,3.62063 7.55991,3.62063 0,0 16.50363,0 16.50363,0 0.19652,0 0.3824,-0.0738 0.52616,-0.2012 0,0 2.95334,-2.61009 2.95334,-2.61009 0.24946,-0.22032 0.3369,-0.56263 0.21292,-0.86851 -0.11381,-0.31135 -0.40404,-0.51255 -0.73181,-0.51255 0,0 -3.4959,0 -3.4959,0 -1.90829,0 -2.61829,-1.22356 -2.64757,-1.27363 0,0 -7.98221,-19.21381 -7.98221,-19.21381 -0.0186,-0.0537 -0.095,-0.42879 0.0615,-0.63545 0.12873,-0.18123 0.49521,-0.28495 0.99787,-0.28495 0,0 6.67131,0 6.67131,0 8.62135,0 12.39581,-7.31134 12.54887,-7.62452 0.0465,-0.0801 0.91024,-1.87723 1.55853,-3.85368 0.61173,-1.84992 0.89215,-3.52594 0.90669,-3.59514 0.36954,-2.43802 -0.12306,-4.47456 -1.47108,-6.04408 -2.78217,-3.24646 -8.1791,-3.28196 -8.40488,-3.28196 0,0 -54.91826,0 -54.91826,0 z" />
    <path
       inkscape:connector-curvature="0"
       id="path404"
       style="fill:#231f20;fill-opacity:1;fill-rule:nonzero;stroke:none"
       d="m 323.51434,124.10949 c -0.32227,0 -0.61543,0.19755 -0.73559,0.49616 -0.0492,0.13648 -5.3094,13.31446 -8.92912,24.25735 -3.60879,10.93835 -7.05735,24.12082 -7.0974,24.25829 -0.0582,0.2294 0,0.4816 0.142,0.68097 0.14935,0.19026 0.38237,0.3068 0.62998,0.3068 0,0 18.46819,0 18.46819,0 0.35505,0 0.67552,-0.24763 0.76291,-0.59813 0.0291,-0.11932 3.11535,-12.18376 7.06827,-24.1563 2.76032,-8.35648 5.91026,-16.58824 7.65821,-21.05371 0,0 16.62374,0 16.62374,0 1.402,0 2.39979,0.3596 2.96422,1.06335 0.8758,1.08699 0.53896,2.72754 0.53896,2.7421 -0.0149,0.0673 -0.29314,1.8663 -0.89037,3.67341 -0.60632,1.82352 -1.64962,4.02667 -1.66964,4.05126 -2.2687,4.39809 -6.57122,4.48002 -6.75511,4.48002 0,0 -11.64207,0 -11.64207,0 -0.2804,0 -0.53713,0.14752 -0.68279,0.38965 -0.14021,0.23942 -0.15289,0.53713 -0.0134,0.78203 0,0 1.42021,2.6119 1.42021,2.6119 0.142,0.25127 0.40784,0.41423 0.69371,0.41423 0,0 14.28769,0 14.28769,0 0.0401,0 4.35711,0.0328 6.28349,2.29055 0.79022,0.93041 1.06153,2.10391 0.83211,3.57782 -0.007,0.0319 -0.38965,2.59553 -1.03057,4.53467 -0.6482,1.96006 -2.06295,4.83143 -2.07569,4.86238 -0.11843,0.26676 -2.78944,5.92756 -12.91662,5.92756 0,0 -7.80932,0.21486 -7.80932,0.21486 -0.28769,0.009 -0.54807,0.17471 -0.68099,0.43426 -0.1329,0.26036 -0.10739,0.57262 0.0546,0.81297 0,0 1.84445,2.60646 1.84445,2.60646 0.14935,0.21028 0.38965,0.33866 0.65184,0.33866 0,0 25.52008,0 25.52008,0 8.53581,0 12.55609,-7.78567 12.72725,-8.11887 0.0802,-0.17936 1.73703,-3.79268 2.38524,-5.76551 1.06332,-3.19729 1.47482,-5.86929 1.48211,-5.97945 0.0104,-0.0149 0.0186,-0.12469 0.0186,-0.30771 0,-1.38288 -0.56807,-6.98178 -8.02965,-8.91363 2.21406,-1.97646 3.17909,-4.06488 3.23006,-4.1714 0.0328,-0.0729 0.9905,-2.14033 1.58407,-3.92106 0.58996,-1.80438 0.84849,-3.43216 0.85942,-3.505 0.0947,-0.55716 0.13842,-1.09794 0.13842,-1.61231 0,-1.71153 -0.51162,-3.19181 -1.53311,-4.40081 -2.77121,-3.26832 -8.25905,-3.30382 -8.48117,-3.30382 0,0 -47.8975,0 -47.8975,0 z" />
    <path
       inkscape:connector-curvature="0"
       id="path406"
       style="fill:#231f20;fill-opacity:1;fill-rule:nonzero;stroke:none"
       d="m 404.87049,124.10949 c -0.3241,0 -0.61179,0.19755 -0.73559,0.50346 -0.0582,0.14214 -5.66445,14.46882 -10.80451,30.02375 -0.10933,0.33777 -2.53817,8.1389 1.62413,13.8425 2.72752,3.73625 7.59265,5.62986 14.47885,5.62986 0,0 33.43681,0 33.43681,0 0.24406,0 0.47712,-0.11649 0.62628,-0.32045 0,0 1.96293,-2.60828 1.96293,-2.60828 0.18645,-0.23669 0.20378,-0.55897 0.0728,-0.82936 -0.13052,-0.26492 -0.40777,-0.43426 -0.69918,-0.43426 0,0 -22.81796,0 -22.81796,0 -0.0582,0 -5.62622,-0.0373 -8.31914,-3.75902 -0.99234,-1.36648 -1.49123,-3.07437 -1.49123,-5.10182 0,-1.74067 0.36781,-3.71712 1.09247,-5.92482 0.0218,-0.0556 1.25815,-4.08673 3.26284,-9.92507 0,0 33.65893,0 33.65893,0 0.21852,0 0.42604,-0.0856 0.57165,-0.24217 0,0 2.53104,-2.6119 2.53104,-2.6119 0.1417,-0.14752 0.22205,-0.34505 0.22205,-0.54807 0,-0.1065 -0.0186,-0.21303 -0.0577,-0.30952 -0.12679,-0.29315 -0.41876,-0.48342 -0.732,-0.48342 0,0 -34.71866,0 -34.71866,0 1.58406,-4.46729 3.18635,-8.73612 4.78136,-12.70998 0,0 35.95324,0 35.95324,0 0.2202,0 0.42231,-0.0856 0.5752,-0.23669 0,0 2.53457,-2.61374 2.53457,-2.61374 0.13976,-0.14752 0.22225,-0.34868 0.22225,-0.54622 0,-0.11023 -0.0224,-0.21668 -0.0615,-0.30954 -0.13424,-0.29861 -0.41523,-0.48524 -0.73199,-0.48524 0,0 -56.43698,0 -56.43698,0 z" />
    <path
       inkscape:connector-curvature="0"
       id="path408"
       style="fill:#231f20;fill-opacity:1;fill-rule:nonzero;stroke:none"
       d="m 565.07006,124.10949 c -2.21575,0 -5.06895,1.31279 -6.00847,3.50593 -2.80585,6.59395 -9.72848,23.71202 -13.36459,40.25018 -0.17899,0.79569 0.11559,1.88633 0.73927,2.77578 0.75007,1.05333 1.87902,1.72702 3.18267,1.88906 7.51627,0.95045 40.23566,2.86044 59.13534,0.0837 1.46752,-0.2103 4.83049,-1.87905 5.76833,-4.1523 1.55851,-3.77902 4.55547,-11.28974 7.14282,-19.10727 0.0764,-0.23671 0.0355,-0.50344 -0.1156,-0.7101 -0.14916,-0.20302 -0.38595,-0.3241 -0.64101,-0.3241 0,0 -32.18223,0 -32.18223,0 -0.30036,0 -0.5627,0.16203 -0.70272,0.42516 -0.13245,0.26035 -0.11739,0.58082 0.0559,0.82207 0,0 1.83539,2.60827 1.83539,2.60827 0.14916,0.2103 0.39321,0.33503 0.64454,0.33503 0,0 6.40916,0 6.40916,0 0.62274,0 0.91956,0.29679 1.04523,0.47795 0.15661,0.22578 0.17526,0.43608 0.15288,0.52348 -1.19438,3.40304 -3.08441,8.57497 -5.34956,13.89074 -0.55338,1.04057 -1.57307,1.72792 -2.82936,1.8754 -4.81053,0.5517 -14.08018,1.28274 -22.10433,-0.0149 -0.55711,-0.13842 -1.00142,-0.41787 -1.21266,-0.78839 -0.17526,-0.29862 -0.17899,-0.61907 -0.13051,-0.79843 4.96342,-17.82272 5.31302,-18.88332 12.51233,-37.84674 0.12678,-0.33595 1.08159,-1.52947 2.66938,-1.52947 0,0 39.68564,0 39.68564,0 0.20397,0 0.40068,-0.0729 0.54256,-0.21394 0,0 2.7641,-2.61465 2.7641,-2.61465 0.2366,-0.22122 0.3095,-0.5608 0.18924,-0.86305 -0.1156,-0.30225 -0.41149,-0.4998 -0.72827,-0.4998 0,0 -59.10625,0 -59.10625,0 z" />
    <path
       inkscape:connector-curvature="0"
       id="path410"
       style="fill:#231f20;fill-opacity:1;fill-rule:nonzero;stroke:none"
       d="m 188.00087,166.24145 c 0,0 -6.2726,-32.20141 -6.2726,-32.20141 -0.0255,-0.14752 -0.68643,-3.56693 -5.28753,-3.56693 0,0 -12.3613,0 -12.3613,0 0,0 -1.03784,0.0856 -1.03784,1.04059 0.98686,5.71089 5.56068,32.19962 5.56068,32.19962 0.0474,0.21211 0.96865,3.59695 4.95616,3.59695 0,0 13.63765,0 13.63765,0 0.80478,0 0.80478,-1.06882 0.80478,-1.06882" />
    <path
       inkscape:connector-curvature="0"
       id="path412"
       style="fill:#231f20;fill-opacity:1;fill-rule:nonzero;stroke:none"
       d="m 719.84018,132.79825 c 0,0 0,-7.65728 0,-7.65728 0,0 -3.67432,0 -3.67432,0 0,0 0,-1.03148 0,-1.03148 0,0 8.80892,0 8.80892,0 0,0 0,1.03148 0,1.03148 0,0 -3.66706,0 -3.66706,0 0,0 0,7.65728 0,7.65728 0,0 -1.46754,0 -1.46754,0 z" />
    <path
       inkscape:connector-curvature="0"
       id="path414"
       style="fill:#231f20;fill-opacity:1;fill-rule:nonzero;stroke:none"
       d="m 726.46785,132.79825 c 0,0 0,-8.68876 0,-8.68876 0,0 2.21034,0 2.21034,0 0,0 2.63657,6.1497 2.63657,6.1497 0.24405,0.57808 0.41876,1.0087 0.53155,1.29185 0.12872,-0.31865 0.32424,-0.78477 0.59552,-1.39656 0,0 2.66732,-6.04499 2.66732,-6.04499 0,0 1.98102,0 1.98102,0 0,0 0,8.68876 0,8.68876 0,0 -1.42018,0 -1.42018,0 0,0 0,-7.26582 0,-7.26582 0,0 -3.24102,7.26582 -3.24102,7.26582 0,0 -1.32547,0 -1.32547,0 0,0 -3.21921,-7.39053 -3.21921,-7.39053 0,0 0,7.39053 0,7.39053 0,0 -1.41644,0 -1.41644,0 z" />
  </g>
</svg>
